{"title":"Santa's Slay (2005) 720p fiveofseven zombiRG","uid":12019519,"size":1375333900,"categoryP":"video","categoryS":"hd___movies","magnet":"?xt=urn:btih:84417fdeb3c53536cfd17fd24766fc6dbb87133d&amp;dn=Santa%27s+Slay+%282005%29+720p+fiveofseven+zombiRG&amp;tr=udp%3A%2F%2Ftracker.openbittorrent.com%3A80&amp;tr=udp%3A%2F%2Fopen.demonii.com%3A1337&amp;tr=udp%3A%2F%2Ftracker.coppersurfer.tk%3A6969&amp;tr=udp%3A%2F%2Fexodus.desync.com%3A6969","seeders":0,"leechers":1,"uploader":"fiveofseven","files":3,"time":1434393300,"description":"AAC 2.0 Track 1 &amp; AC3 5.1 Track 2\n &lt;a href=&quot;\nhttps://yuq.me/users/25/564/OlSgxjvhcP.jpg&quot; rel=&quot;nofollow&quot; target=&quot;_NEW&quot;&gt;\nhttps://yuq.me/users/25/564/OlSgxjvhcP.jpg&lt;/a&gt;\n\n\nPLOT - Santa Claus is actually a demon who lost a bet with \nan Angel, so he becomes the giver of toys and happiness. \nBut when the bet is off, he returns to his evil ways.\n\n\nSource - PublicHD\n\nGeneral\nComplete name : C:Santa's Slay 720p fiveofseven zombiRG.mp4\nFormat : MPEG-4\nFormat profile : Base Media\nCodec ID : isom\nFile size : 1.27 GiB\nDuration : 1h 24mn\nOverall bit rate mode : Variable\nOverall bit rate : 2 151 Kbps\nEncoded date : UTC 2015-01-14 15:17:49\nTagged date : UTC 2015-01-14 15:17:49\nWriting application : My MP4Box GUI 0.6.0.6 \n\nVideo\nID : 1\nFormat : AVC\nFormat/Info : Advanced Video Codec\nFormat profile : &lt;a class=&quot;__cf_email__&quot; href=&quot;/cdn-cgi/l/email-protection&quot; data-cfemail=&quot;9dd5f4faf5ddd1a9b3ad&quot;&gt;[email&amp;#160;protected]&lt;/a&gt;&lt;script data-cfhash='f9e31' type=&quot;text/javascript&quot;&gt;\n/* &lt;![CDATA[ */!function(){try{var t=&quot;currentScript&quot;in document?document.currentScript:function(){for(var t=document.getElementsByTagName(&quot;script&quot;),e=t.length;e--;)if(t[e].getAttribute(&quot;data-cfhash&quot;))return t[e]}();if(t&amp;&amp;t.previousSibling){var e,r,n,i,c=t.previousSibling,a=c.getAttribute(&quot;data-cfemail&quot;);if(a){for(e=&quot;&quot;,r=parseInt(a.substr(0,2),16),n=2;a.length-n;n+=2)i=parseInt(a.substr(n,2),16)^r,e+=String.fromCharCode(i);e=document.createTextNode(e),c.parentNode.replaceChild(e,c)}t.parentNode.removeChild(t);}}catch(u){}}()/* ]]&gt; */&lt;/script&gt;\nFormat settings, CABAC : Yes\nFormat settings, ReFrames : 7 frames\nCodec ID : avc1\nCodec ID/Info : Advanced Video Coding\nDuration : 1h 24mn\nBit rate : 1 700 Kbps\nMaximum bit rate : 7 583 Kbps\nWidth : 1 280 pixels\nHeight : 720 pixels\nDisplay aspect ratio : 16:9\nFrame rate mode : Constant\nFrame rate : 23.976 fps\nColor space : YUV\nChroma subsampling : 4:2:0\nBit depth : 8 bits\nScan type : Progressive\nBits/(Pixel*Frame) : 0.077\nStream size : 1.01 GiB (79%)\nTitle : SS.mp4\nWriting library : x264 core 133 r2334 a3ac64b\nEncoding settings : [:Qno]\nLanguage : English\nEncoded date : UTC 2015-01-14 04:04:48\nTagged date : UTC 2015-01-14 15:19:33\n\nAudio #1\nID : 2\nFormat : AAC\nFormat/Info : Advanced Audio Codec\nFormat profile : LC\nCodec ID : 40\nDuration : 1h 24mn\nBit rate mode : Variable\nBit rate : 128 Kbps\nMaximum bit rate : 139 Kbps\nChannel count : 2 channels\nChannel positions : Front: L R\nSampling rate : 48.0 KHz\nCompression mode : Lossy\nDelay relative to video : 83ms\nStream size : 77.6 MiB (6%)\nTitle : aac 2.0 from dts.mp4\nLanguage : English\nEncoded date : UTC 2015-01-14 15:19:04\nTagged date : UTC 2015-01-14 15:19:33\n\nAudio #2\nID : 3\nFormat : AC-3\nFormat/Info : Audio Coding 3\nMode extension : CM (complete main)\nFormat settings, Endianness : Big\nCodec ID : ac-3\nDuration : 1h 24mn\nBit rate mode : Constant\nBit rate : 320 Kbps\nChannel count : 6 channels\nChannel positions : Front: L C R, Side: L R, LFE\nSampling rate : 48.0 KHz\nBit depth : 16 bits\nCompression mode : Lossy\nDelay relative to video : 83ms\nStream size : 194 MiB (15%)\nTitle : ac5 5.1.ac3\nLanguage : English\nEncoded date : UTC 2015-01-14 15:19:09\nTagged date : UTC 2015-01-14 15:19:33\n &lt;a href=&quot;\nhttps://yuq.me/users/25/564/4JLXNx5KYP.png&quot; rel=&quot;nofollow&quot; target=&quot;_NEW&quot;&gt;\nhttps://yuq.me/users/25/564/4JLXNx5KYP.png&lt;/a&gt; &lt;a href=&quot;\nhttps://yuq.me/users/25/564/S4gajfy7k3.png&quot; rel=&quot;nofollow&quot; target=&quot;_NEW&quot;&gt;\nhttps://yuq.me/users/25/564/S4gajfy7k3.png&lt;/a&gt; &lt;a href=&quot;\nhttps://yuq.me/users/25/564/yAOngxFj9P.png&quot; rel=&quot;nofollow&quot; target=&quot;_NEW&quot;&gt;\nhttps://yuq.me/users/25/564/yAOngxFj9P.png&lt;/a&gt; &lt;a href=&quot;\nhttps://yuq.me/users/25/564/PvAXjhVIib.png&quot; rel=&quot;nofollow&quot; target=&quot;_NEW&quot;&gt;\nhttps://yuq.me/users/25/564/PvAXjhVIib.png&lt;/a&gt;\n\n &lt;a href=&quot;\nhttps://yuq.me/users/25/564/aegRQCBILx.png&quot; rel=&quot;nofollow&quot; target=&quot;_NEW&quot;&gt;\nhttps://yuq.me/users/25/564/aegRQCBILx.png&lt;/a&gt;","torrent":{"xt":"urn:btih:84417fdeb3c53536cfd17fd24766fc6dbb87133d","amp;dn":"Santa%27s+Slay+%282005%29+720p+fiveofseven+zombiRG","amp;tr":["udp%3A%2F%2Ftracker.openbittorrent.com%3A80","udp%3A%2F%2Fopen.demonii.com%3A1337","udp%3A%2F%2Ftracker.coppersurfer.tk%3A6969","udp%3A%2F%2Fexodus.desync.com%3A6969"],"infoHash":"84417fdeb3c53536cfd17fd24766fc6dbb87133d","infoHashBuffer":{"type":"Buffer","data":[132,65,127,222,179,197,53,54,207,209,127,210,71,102,252,109,187,135,19,61]},"announce":[],"urlList":[]}}